<svg width="64" height="26" viewBox="0 0 64 26" fill="none" xmlns="http://www.w3.org/2000/svg">
<rect x="1.15237" y="1.4457" width="23.7677" height="23.7677" rx="11.8838" fill="white" fill-opacity="0.6"/>
<rect x="1.15237" y="1.4457" width="23.7677" height="23.7677" rx="11.8838" stroke="#151515" stroke-width="1.1086"/>
<path d="M17.7568 18.6402V17.4601C17.7568 16.8341 17.5082 16.2337 17.0655 15.7911C16.6229 15.3484 16.0225 15.0997 15.3965 15.0997H10.6759C10.0499 15.0997 9.44952 15.3484 9.00687 15.7911C8.56423 16.2337 8.31555 16.8341 8.31555 17.4601V18.6402" stroke="#151515" stroke-width="0.755303" stroke-linecap="round" stroke-linejoin="round"/>
<path d="M13.0362 12.7394C14.3398 12.7394 15.3965 11.6827 15.3965 10.3791C15.3965 9.07555 14.3398 8.0188 13.0362 8.0188C11.7327 8.0188 10.6759 9.07555 10.6759 10.3791C10.6759 11.6827 11.7327 12.7394 13.0362 12.7394Z" stroke="#151515" stroke-width="0.755303" stroke-linecap="round" stroke-linejoin="round"/>
<rect x="20.1161" y="1.4457" width="23.7677" height="23.7677" rx="11.8838" fill="white" fill-opacity="0.6"/>
<rect x="20.1161" y="1.4457" width="23.7677" height="23.7677" rx="11.8838" stroke="#151515" stroke-width="1.1086"/>
<path d="M36.7206 18.6402V17.4601C36.7206 16.8341 36.4719 16.2337 36.0293 15.7911C35.5866 15.3484 34.9863 15.0997 34.3603 15.0997H29.6396C29.0136 15.0997 28.4133 15.3484 27.9706 15.7911C27.528 16.2337 27.2793 16.8341 27.2793 17.4601V18.6402" stroke="#151515" stroke-width="0.755303" stroke-linecap="round" stroke-linejoin="round"/>
<path d="M32 12.7394C33.3035 12.7394 34.3603 11.6827 34.3603 10.3791C34.3603 9.07555 33.3035 8.0188 32 8.0188C30.6964 8.0188 29.6396 9.07555 29.6396 10.3791C29.6396 11.6827 30.6964 12.7394 32 12.7394Z" stroke="#151515" stroke-width="0.755303" stroke-linecap="round" stroke-linejoin="round"/>
<rect x="39.0799" y="1.4457" width="23.7677" height="23.7677" rx="11.8838" fill="white" fill-opacity="0.6"/>
<rect x="39.0799" y="1.4457" width="23.7677" height="23.7677" rx="11.8838" stroke="#151515" stroke-width="1.1086"/>
<path d="M55.6843 18.6402V17.4601C55.6843 16.8341 55.4357 16.2337 54.993 15.7911C54.5504 15.3484 53.95 15.0997 53.324 15.0997H48.6034C47.9774 15.0997 47.377 15.3484 46.9344 15.7911C46.4917 16.2337 46.243 16.8341 46.243 17.4601V18.6402" stroke="#151515" stroke-width="0.755303" stroke-linecap="round" stroke-linejoin="round"/>
<path d="M50.9637 12.7394C52.2673 12.7394 53.324 11.6827 53.324 10.3791C53.324 9.07555 52.2673 8.0188 50.9637 8.0188C49.6601 8.0188 48.6034 9.07555 48.6034 10.3791C48.6034 11.6827 49.6601 12.7394 50.9637 12.7394Z" stroke="#151515" stroke-width="0.755303" stroke-linecap="round" stroke-linejoin="round"/>
</svg>
